<svg width="1154" height="580" viewBox="0 0 1154 580" fill="none" xmlns="http://www.w3.org/2000/svg">
<path d="M0 1H1154C989.309 1 695.067 91.2156 577 394.999C458.933 91.2156 164.691 1 0 1Z" fill="url(#paint0_linear_239_8)"/>
<path d="M532.329 579C585.78 126.336 959.882 1 1154 1H0C194.118 1 568.221 126.336 621.671 579" stroke="url(#paint1_linear_239_8)"/>
<path opacity="0.5" fill-rule="evenodd" clip-rule="evenodd" d="M510.971 444L469.256 444L466 444L468.57 446L576.5 530L684.43 446L687 444L683.744 444L642.029 444L639.459 446L681.174 446L576.5 527.466L471.826 446L513.541 446L510.971 444Z" fill="url(#paint2_linear_239_8)"/>
<path d="M466 409L576.5 495L687 409" stroke="#8C8C8C" stroke-width="2"/>
<defs>
<linearGradient id="paint0_linear_239_8" x1="577" y1="1" x2="577" y2="766.512" gradientUnits="userSpaceOnUse">
<stop stop-color="#D9D9D9" stop-opacity="0"/>
<stop offset="0.84" stop-color="#D9D9D9"/>
</linearGradient>
<linearGradient id="paint1_linear_239_8" x1="577" y1="105.931" x2="577" y2="766.512" gradientUnits="userSpaceOnUse">
<stop stop-color="#D9D9D9" stop-opacity="0"/>
<stop offset="0.3" stop-color="#D9D9D9" stop-opacity="0.6"/>
<stop offset="0.4" stop-color="#D9D9D9" stop-opacity="0"/>
</linearGradient>
<linearGradient id="paint2_linear_239_8" x1="466" y1="487" x2="687" y2="487" gradientUnits="userSpaceOnUse">
<stop stop-color="#03FE51"/>
<stop offset="1" stop-color="#3371FF"/>
</linearGradient>
</defs>
</svg>
