<svg width="199" height="90" viewBox="0 0 199 90" fill="none" xmlns="http://www.w3.org/2000/svg">
<g clip-path="url(#clip0_427_16)">
<mask id="mask0_427_16" style="mask-type:luminance" maskUnits="userSpaceOnUse" x="0" y="0" width="199" height="90">
<path d="M198.425 0H0V89.291H198.425V0Z" fill="white"/>
</mask>
<g mask="url(#mask0_427_16)">
<path d="M0.886 25.4389C4.535 21.8879 6.402 20.3679 10.225 17.7069C15.376 14.0349 19.371 13.1359 21.522 14.7179C23.713 16.3279 24.948 22.6229 24.97 35.0529C25.03 47.1619 25.016 54.0839 25.089 65.9439C25.113 69.8219 24.981 73.1599 24.625 75.8909C24.258 78.6989 23.489 80.9809 22.399 82.7339C20.381 86.2079 16.134 87.3199 9.993 86.8249C5.887 86.4939 3.878 86.2949 0 85.8089C0.177 65.6839 0.741 45.5639 0.886 25.4389ZM9.446 77.8829C12.072 77.8829 13.619 78.0589 14.319 76.3979C14.7 75.5799 14.996 74.4839 15.08 73.2009C15.156 72.0269 15.141 70.4769 15.143 68.6339C15.155 55.8839 15.228 47.9339 15.249 34.9759C15.296 29.8119 15.445 27.4489 14.914 26.1399C14.565 25.3809 13.787 25.0189 13.048 25.1629C12.265 25.3159 10.906 26.2579 9.791 27.3719C9.741 45.0619 9.496 60.1929 9.446 77.8829Z" fill="white"/>
</g>
<mask id="mask1_427_16" style="mask-type:luminance" maskUnits="userSpaceOnUse" x="0" y="0" width="199" height="90">
<path d="M198.425 0H0V89.291H198.425V0Z" fill="white"/>
</mask>
<g mask="url(#mask1_427_16)">
<path d="M55.4033 66.4311C55.4433 76.2261 54.2323 82.1201 51.6793 85.1661C49.1413 88.1941 45.9323 89.3431 42.2533 89.2891C38.6203 89.2361 35.3443 87.9901 32.6453 85.2531C29.8883 82.4581 28.3963 77.2941 28.2703 68.1001C28.1633 54.9021 28.1293 41.7031 28.0233 28.5041C27.9793 23.6971 28.3183 19.9291 28.9833 17.0011C29.6443 14.0931 30.5103 11.7541 31.6573 9.97806C32.8283 8.16306 34.2333 6.74006 35.7693 5.81006C37.2543 4.91106 38.9343 4.27906 40.6823 3.89006C42.4703 3.49206 44.2563 3.35006 45.8853 3.59106C47.5313 3.83406 49.0813 4.70406 50.4113 6.09706C51.7513 7.49906 52.8453 9.59406 53.6613 12.4691C54.4773 15.3461 54.9473 19.2861 55.0123 24.4021C55.1513 38.4111 55.2633 52.4201 55.4033 66.4311ZM38.6923 71.9241C38.7203 73.6311 39.0253 75.0611 39.4553 76.1821C39.9413 77.4491 40.7283 78.1291 41.8963 78.0901C43.1083 78.0511 43.9753 77.3501 44.3943 75.9861C44.7513 74.8211 44.8913 73.3401 44.8603 71.6051C44.5923 54.7261 44.5113 37.8461 44.2433 20.9681C44.2113 19.1561 44.0423 17.5481 43.6043 16.4161C43.1933 15.3531 42.2423 14.8801 41.0443 15.0871C39.8903 15.2871 39.1113 16.0021 38.7173 17.2341C38.2893 18.5751 38.0983 20.1311 38.1283 21.9141C38.3763 38.5831 38.4443 55.2541 38.6923 71.9241Z" fill="white"/>
</g>
<mask id="mask2_427_16" style="mask-type:luminance" maskUnits="userSpaceOnUse" x="0" y="0" width="199" height="90">
<path d="M198.425 0H0V89.291H198.425V0Z" fill="white"/>
</mask>
<g mask="url(#mask2_427_16)">
<path d="M87.05 53.481C86.99 57.803 86.961 59.957 86.915 64.203C86.754 78.982 82.025 87.438 72.787 88.771C70.99 89.03 69.27 88.832 67.656 88.276C66.033 87.717 64.536 86.637 63.227 84.994C60.424 81.882 58.875 76.047 58.723 66.181C58.607 52.181 58.52 38.181 58.404 24.181C58.348 19.024 58.713 14.969 59.448 11.881C60.18 8.80703 61.151 6.39003 62.437 4.59403C63.731 2.78703 65.326 1.44003 67.072 0.772027C68.767 0.124027 70.683 -0.0929727 72.615 0.0360273C77 0.330027 80.71 2.38303 83.401 5.79703C86.147 9.28003 87.5 15.238 87.457 23.7C87.419 27.212 87.397 28.989 87.349 32.56C82.859 31.947 80.611 31.704 76.122 31.434C76.152 26.523 76.165 24.09 76.173 19.378C76.176 17.54 76.027 15.844 75.582 14.553C75.154 13.31 74.12 12.542 72.76 12.421C71.497 12.309 70.672 12.89 70.251 14.081C69.786 15.393 69.528 16.995 69.535 18.866C69.579 35.969 69.457 53.071 69.501 70.174C69.508 71.965 69.829 73.475 70.228 74.611C70.679 75.897 71.436 76.573 72.632 76.385C73.923 76.183 74.849 75.311 75.309 73.829C75.701 72.569 75.875 71.027 75.878 69.267C75.916 63.449 75.949 60.419 76.02 54.324C80.417 53.973 82.627 53.797 87.05 53.481Z" fill="white"/>
</g>
<mask id="mask3_427_16" style="mask-type:luminance" maskUnits="userSpaceOnUse" x="0" y="0" width="199" height="90">
<path d="M198.425 0H0V89.291H198.425V0Z" fill="white"/>
</mask>
<g mask="url(#mask3_427_16)">
<path d="M108.586 36.557C108.681 33.018 108.727 31.237 108.811 27.6C108.932 24.361 107.856 22.192 105.635 21.314C104.365 20.812 103.457 20.939 102.981 21.655C102.484 22.399 102.259 23.693 102.251 25.432C102.243 26.843 102.487 28.255 102.96 29.548C103.448 30.883 104.074 32.284 104.894 33.585C105.687 34.844 106.634 36.135 107.67 37.422C108.706 38.708 109.761 39.964 110.835 41.181C113.096 43.69 115.041 46.332 116.665 49.127C118.272 51.893 119.044 55.148 118.915 59.365C118.604 69.528 113.608 77.094 104.311 80.082C100.651 81.257 97.3739 81.217 94.6059 79.713C91.7779 78.178 90.2849 74.192 90.3129 67.705C90.3769 61.985 90.4219 59.076 90.5149 53.243C94.9689 52.946 97.1999 52.812 101.647 52.612C101.539 57.38 101.487 59.765 101.397 64.583C101.284 68.222 102.425 69.565 104.538 69.059C105.497 68.83 106.385 68.306 106.999 67.385C107.539 66.572 107.841 65.221 107.872 63.372C107.934 59.773 107.112 56.959 105.457 54.686C104.674 53.578 103.744 52.473 102.697 51.354C101.66 50.247 100.601 49.069 99.5179 47.852C97.2569 45.451 95.2889 42.285 93.5659 38.444C91.8459 34.611 90.9099 29.361 90.9819 23.277C91.0639 16.265 92.5139 11.733 95.2359 9.94802C97.9029 8.19902 101.528 8.43502 105.994 10.402C109.987 12.16 113.422 14.802 116.055 18.077C118.771 21.457 120.061 25.703 119.957 30.396C119.843 33.999 119.783 35.696 119.662 39.036C115.254 38.036 113.037 37.523 108.586 36.557Z" fill="white"/>
</g>
<mask id="mask4_427_16" style="mask-type:luminance" maskUnits="userSpaceOnUse" x="0" y="0" width="199" height="90">
<path d="M198.425 0H0V89.291H198.425V0Z" fill="white"/>
</mask>
<g mask="url(#mask4_427_16)">
<path d="M149.589 59.312C149.233 64.437 147.712 68.579 145.01 70.924C142.322 73.258 139.059 74.503 135.447 74.468C131.871 74.433 128.708 73.139 126.121 70.844C123.476 68.497 122.157 64.068 122.332 58.24C122.691 48.683 122.893 44.999 123.253 35.443C123.368 32.397 123.898 29.84 124.759 27.971C125.617 26.106 126.713 24.589 128.06 23.678C129.441 22.745 131.096 22.186 132.784 22.123C134.442 22.062 136.272 22.297 138.092 22.662C139.953 23.036 141.733 23.524 143.288 24.201C144.872 24.891 146.255 26.007 147.399 27.331C148.553 28.666 149.426 30.348 150.023 32.282C150.622 34.219 150.868 36.59 150.724 39.271C150.269 47.74 150.043 50.841 149.589 59.312ZM132.962 60.646C132.912 61.669 133.149 62.602 133.523 63.394C133.935 64.267 134.692 64.845 135.854 64.927C137.059 65.012 137.955 64.601 138.439 63.771C138.848 63.071 139.067 62.167 139.123 61.167C139.714 50.232 140.01 47.475 140.601 36.541C140.658 35.496 140.557 34.449 140.2 33.669C139.843 32.893 138.926 32.379 137.689 32.203C136.501 32.033 135.644 32.286 135.169 32.981C134.653 33.735 134.373 34.656 134.321 35.725C133.777 46.899 133.505 49.471 132.962 60.646Z" fill="white"/>
</g>
<mask id="mask5_427_16" style="mask-type:luminance" maskUnits="userSpaceOnUse" x="0" y="0" width="199" height="90">
<path d="M198.425 0H0V89.291H198.425V0Z" fill="white"/>
</mask>
<g mask="url(#mask5_427_16)">
<path d="M152.516 73.665C153.235 57.416 154.115 41.177 154.833 24.928C158.753 24.759 160.668 24.576 164.501 24.373C164.061 38.148 163.572 51.92 163.096 65.693C167.562 65.781 169.791 65.792 174.287 65.716C174.238 68.74 174.213 70.286 174.164 73.503C165.456 74.046 161.157 73.911 152.516 73.665Z" fill="white"/>
</g>
<mask id="mask6_427_16" style="mask-type:luminance" maskUnits="userSpaceOnUse" x="0" y="0" width="199" height="90">
<path d="M198.425 0H0V89.291H198.425V0Z" fill="white"/>
</mask>
<g mask="url(#mask6_427_16)">
<path d="M176.469 73.341C176.676 57.062 176.917 40.781 177.124 24.501C185.21 25.343 189.298 26.248 198.427 32.247V37.586C193.71 35.266 191.454 34.523 187.044 33.507C187.036 37.53 187.03 39.535 187.023 43.544C191.322 44.09 193.51 44.498 198.042 45.805C198.043 48.149 198.043 49.335 198.044 51.697C193.525 50.929 191.331 50.694 187.009 50.378C186.996 56.3 186.988 59.258 186.976 65.204C191.499 64.909 193.782 64.711 198.428 64.187V69.526C189.495 72.062 185.134 72.662 176.469 73.341Z" fill="white"/>
</g>
</g>
<defs>
<clipPath id="clip0_427_16">
<rect width="198.425" height="89.291" fill="white"/>
</clipPath>
</defs>
</svg>
