<svg width="148" height="36" viewBox="0 0 148 36" fill="none" xmlns="http://www.w3.org/2000/svg">
<path d="M7.512 23.288C6.168 23.288 4.88 23.112 3.648 22.76C2.416 22.392 1.424 21.92 0.672 21.344L1.992 18.416C2.712 18.928 3.56 19.352 4.536 19.688C5.528 20.008 6.528 20.168 7.536 20.168C8.304 20.168 8.92 20.096 9.384 19.952C9.864 19.792 10.216 19.576 10.44 19.304C10.664 19.032 10.776 18.72 10.776 18.368C10.776 17.92 10.6 17.568 10.248 17.312C9.896 17.04 9.432 16.824 8.856 16.664C8.28 16.488 7.64 16.328 6.936 16.184C6.248 16.024 5.552 15.832 4.848 15.608C4.16 15.384 3.528 15.096 2.952 14.744C2.376 14.392 1.904 13.928 1.536 13.352C1.184 12.776 1.008 12.04 1.008 11.144C1.008 10.184 1.264 9.312 1.776 8.528C2.304 7.728 3.088 7.096 4.128 6.632C5.184 6.152 6.504 5.912 8.088 5.912C9.144 5.912 10.184 6.04 11.208 6.296C12.232 6.536 13.136 6.904 13.92 7.4L12.72 10.352C11.936 9.904 11.152 9.576 10.368 9.368C9.584 9.144 8.816 9.032 8.064 9.032C7.312 9.032 6.696 9.12 6.216 9.296C5.736 9.472 5.392 9.704 5.184 9.992C4.976 10.264 4.872 10.584 4.872 10.952C4.872 11.384 5.048 11.736 5.4 12.008C5.752 12.264 6.216 12.472 6.792 12.632C7.368 12.792 8 12.952 8.688 13.112C9.392 13.272 10.088 13.456 10.776 13.664C11.48 13.872 12.12 14.152 12.696 14.504C13.272 14.856 13.736 15.32 14.088 15.896C14.456 16.472 14.64 17.2 14.64 18.08C14.64 19.024 14.376 19.888 13.848 20.672C13.32 21.456 12.528 22.088 11.472 22.568C10.432 23.048 9.112 23.288 7.512 23.288ZM20.8727 12.968H28.9607V15.992H20.8727V12.968ZM21.1607 19.88H30.3047V23H17.2967V6.2H29.9927V9.32H21.1607V19.88ZM41.5583 23.288C40.2303 23.288 38.9983 23.072 37.8623 22.64C36.7423 22.208 35.7663 21.6 34.9342 20.816C34.1183 20.032 33.4783 19.112 33.0143 18.056C32.5663 17 32.3423 15.848 32.3423 14.6C32.3423 13.352 32.5663 12.2 33.0143 11.144C33.4783 10.088 34.1263 9.168 34.9583 8.384C35.7903 7.6 36.7663 6.992 37.8863 6.56C39.0063 6.128 40.2223 5.912 41.5343 5.912C42.8623 5.912 44.0782 6.128 45.1823 6.56C46.3023 6.992 47.2703 7.6 48.0863 8.384C48.9183 9.168 49.5663 10.088 50.0303 11.144C50.4943 12.184 50.7263 13.336 50.7263 14.6C50.7263 15.848 50.4943 17.008 50.0303 18.08C49.5663 19.136 48.9183 20.056 48.0863 20.84C47.2703 21.608 46.3023 22.208 45.1823 22.64C44.0782 23.072 42.8702 23.288 41.5583 23.288ZM41.5343 19.976C42.2863 19.976 42.9743 19.848 43.5983 19.592C44.2383 19.336 44.7983 18.968 45.2783 18.488C45.7583 18.008 46.1263 17.44 46.3823 16.784C46.6543 16.128 46.7903 15.4 46.7903 14.6C46.7903 13.8 46.6543 13.072 46.3823 12.416C46.1263 11.76 45.7583 11.192 45.2783 10.712C44.8143 10.232 44.2623 9.864 43.6223 9.608C42.9823 9.352 42.2863 9.224 41.5343 9.224C40.7823 9.224 40.0863 9.352 39.4463 9.608C38.8223 9.864 38.2703 10.232 37.7903 10.712C37.3103 11.192 36.9343 11.76 36.6623 12.416C36.4063 13.072 36.2783 13.8 36.2783 14.6C36.2783 15.384 36.4063 16.112 36.6623 16.784C36.9343 17.44 37.3023 18.008 37.7663 18.488C38.2463 18.968 38.8063 19.336 39.4463 19.592C40.0863 19.848 40.7823 19.976 41.5343 19.976ZM64.6211 23V16.136L65.5091 18.488L58.1171 6.2H62.2451L67.9091 15.632H65.5331L71.2211 6.2H75.0371L67.6451 18.488L68.5091 16.136V23H64.6211ZM80.0993 12.968H88.1873V15.992H80.0993V12.968ZM80.3873 19.88H89.5312V23H76.5233V6.2H89.2193V9.32H80.3873V19.88ZM104.942 23.288C103.598 23.288 102.31 23.112 101.078 22.76C99.8457 22.392 98.8537 21.92 98.1017 21.344L99.4217 18.416C100.142 18.928 100.99 19.352 101.966 19.688C102.958 20.008 103.958 20.168 104.966 20.168C105.734 20.168 106.35 20.096 106.814 19.952C107.294 19.792 107.646 19.576 107.87 19.304C108.094 19.032 108.206 18.72 108.206 18.368C108.206 17.92 108.03 17.568 107.678 17.312C107.326 17.04 106.862 16.824 106.286 16.664C105.71 16.488 105.07 16.328 104.366 16.184C103.678 16.024 102.982 15.832 102.278 15.608C101.59 15.384 100.958 15.096 100.382 14.744C99.8057 14.392 99.3337 13.928 98.9657 13.352C98.6137 12.776 98.4377 12.04 98.4377 11.144C98.4377 10.184 98.6937 9.312 99.2057 8.528C99.7337 7.728 100.518 7.096 101.558 6.632C102.614 6.152 103.934 5.912 105.518 5.912C106.574 5.912 107.614 6.04 108.638 6.296C109.662 6.536 110.566 6.904 111.35 7.4L110.15 10.352C109.366 9.904 108.582 9.576 107.798 9.368C107.014 9.144 106.246 9.032 105.494 9.032C104.742 9.032 104.126 9.12 103.646 9.296C103.166 9.472 102.822 9.704 102.614 9.992C102.406 10.264 102.302 10.584 102.302 10.952C102.302 11.384 102.478 11.736 102.83 12.008C103.182 12.264 103.646 12.472 104.222 12.632C104.798 12.792 105.43 12.952 106.118 13.112C106.822 13.272 107.518 13.456 108.206 13.664C108.91 13.872 109.55 14.152 110.126 14.504C110.702 14.856 111.166 15.32 111.518 15.896C111.886 16.472 112.07 17.2 112.07 18.08C112.07 19.024 111.806 19.888 111.278 20.672C110.75 21.456 109.958 22.088 108.902 22.568C107.862 23.048 106.542 23.288 104.942 23.288ZM135.117 23V6.2H139.005V19.832H147.429V23H135.117Z" fill="white"/>
<g filter="url(#filter0_d_483_4)">
<circle cx="123" cy="15" r="9" fill="#307FF6"/>
</g>
<circle cx="118.9" cy="10.4" r="0.9" fill="white"/>
<circle cx="124.783" cy="10.4" r="0.9" fill="white"/>
<path d="M119.768 13.4216C119.768 13.6276 119.826 13.8316 119.939 14.0219C120.053 14.2122 120.219 14.3851 120.428 14.5308C120.637 14.6765 120.886 14.792 121.16 14.8708C121.433 14.9497 121.726 14.9902 122.022 14.9902C122.319 14.9902 122.612 14.9497 122.885 14.8708C123.159 14.792 123.408 14.6765 123.617 14.5308C123.826 14.3851 123.992 14.2122 124.106 14.0219C124.219 13.8316 124.277 13.6276 124.277 13.4216" stroke="white" stroke-width="0.7" stroke-linecap="round"/>
<path d="M119.176 13.2255L119.744 13.3778" stroke="white" stroke-width="0.7" stroke-linecap="round"/>
<path d="M124.844 13.2255L124.276 13.3777" stroke="white" stroke-width="0.7" stroke-linecap="round"/>
<defs>
<filter id="filter0_d_483_4" x="106" y="2" width="34" height="34" filterUnits="userSpaceOnUse" color-interpolation-filters="sRGB">
<feFlood flood-opacity="0" result="BackgroundImageFix"/>
<feColorMatrix in="SourceAlpha" type="matrix" values="0 0 0 0 0 0 0 0 0 0 0 0 0 0 0 0 0 0 127 0" result="hardAlpha"/>
<feOffset dy="4"/>
<feGaussianBlur stdDeviation="4"/>
<feComposite in2="hardAlpha" operator="out"/>
<feColorMatrix type="matrix" values="0 0 0 0 0 0 0 0 0 0 0 0 0 0 0 0 0 0 0.25 0"/>
<feBlend mode="normal" in2="BackgroundImageFix" result="effect1_dropShadow_483_4"/>
<feBlend mode="normal" in="SourceGraphic" in2="effect1_dropShadow_483_4" result="shape"/>
</filter>
</defs>
</svg>
