<svg width="16" height="12" viewBox="0 0 16 12" fill="none" xmlns="http://www.w3.org/2000/svg">
<circle cx="2" cy="2.00004" r="2" fill="white"/>
<circle cx="13.7695" cy="2.00001" r="2" fill="white"/>
<path d="M3.53312 7.84318C3.53312 8.25517 3.64977 8.66313 3.87641 9.04376C4.10305 9.42439 4.43524 9.77024 4.85402 10.0616C5.27279 10.3529 5.76995 10.584 6.3171 10.7416C6.86426 10.8993 7.45069 10.9804 8.04293 10.9804C8.63517 10.9804 9.2216 10.8993 9.76876 10.7416C10.3159 10.584 10.8131 10.3529 11.2318 10.0616C11.6506 9.77024 11.9828 9.42439 12.2094 9.04376C12.4361 8.66313 12.5527 8.25517 12.5527 7.84318" stroke="white" stroke-width="2" stroke-linecap="round"/>
<path d="M2.35156 7.45103L3.48795 7.75552" stroke="white" stroke-width="2" stroke-linecap="round"/>
<path d="M13.6836 7.451L12.5472 7.75549" stroke="white" stroke-width="2" stroke-linecap="round"/>
</svg>
