<svg width="198" height="37" viewBox="0 0 198 37" fill="none" xmlns="http://www.w3.org/2000/svg">
<g clip-path="url(#clip0_362_225)">
<path d="M38.2968 29.8062H0V37H38.2968V29.8062Z" fill="white"/>
<path d="M40.8164 25.9961H55.2744V29.8062H40.8164V37H79.1132V29.8062H64.6553V25.9961H79.1132V19.0154H49.3286V16.7442H79.1132V10.1938H49.3286V7.96506H79.1132V1.19763H40.8164V25.9961Z" fill="white"/>
<path d="M192.79 13.748V1.19763H184.282V29.7209H167.391V8.3953H181.327V1.19763H158.879V37H192.79V21.4108H198.001V13.748H192.79Z" fill="white"/>
<path d="M143.925 22.7868H136.545C136.545 26.0659 131.44 29.7209 124.111 29.7209H90.145V21.841H105.601V1.19763H81.6328V8.39142H97.0891V14.6434H81.6328V37H124.111C130.831 37 136.671 34.717 140.235 31.1472C143.8 34.7131 149.64 37 156.36 37V29.7209C149.031 29.7209 143.925 26.0659 143.925 22.7868Z" fill="white"/>
<path d="M19.1386 14.9186C19.9442 16.2209 20.8638 17.4496 21.9013 18.5891C26.2556 23.3643 32.0797 25.9961 38.2968 25.9961V18.4031C34.2844 18.4031 30.4881 16.6667 27.6115 13.5078C24.6326 10.2403 22.9899 5.86819 22.9899 1.20154H15.3069C15.3069 10.686 8.44142 18.4031 0 18.4031V25.9961C7.97767 25.9961 15.0122 21.593 19.1386 14.9225V14.9186Z" fill="white"/>
<path d="M156.364 0.554321H147.852V23.4652H156.364V0.554321Z" fill="white"/>
<path d="M132 21.5853C138.044 21.5853 142.94 16.7519 142.94 10.7946C142.94 4.83719 138.04 0 132 0C125.959 0 121.059 4.83335 121.059 10.7907C121.059 16.7481 125.959 21.5814 132 21.5814V21.5853ZM132 7.19769C134.012 7.19769 135.647 8.8101 135.647 10.7946C135.647 12.7791 134.012 14.3915 132 14.3915C129.987 14.3915 128.353 12.7791 128.353 10.7946C128.353 8.8101 129.987 7.19769 132 7.19769Z" fill="white"/>
<path d="M117.063 1.19763H108.551V25.9922H117.063V1.19763Z" fill="white"/>
</g>
<defs>
<clipPath id="clip0_362_225">
<rect width="198" height="37" fill="white"/>
</clipPath>
</defs>
</svg>
