<?xml version="1.0" encoding="utf-8"?>
<!-- Generator: Adobe Illustrator 16.0.0, SVG Export Plug-In . SVG Version: 6.00 Build 0)  -->
<!DOCTYPE svg PUBLIC "-//W3C//DTD SVG 1.1//EN" "http://www.w3.org/Graphics/SVG/1.1/DTD/svg11.dtd">
<svg version="1.1" id="레이어_1" xmlns="http://www.w3.org/2000/svg" xmlns:xlink="http://www.w3.org/1999/xlink" x="0px"
	 y="0px" width="435.151px" height="88px" viewBox="0 0 435.151 88" enable-background="new 0 0 435.151 88" xml:space="preserve">
<g>
	<defs>
		<rect id="SVGID_1_" y="0.064" width="435.151" height="115.713"/>
	</defs>
	<clipPath id="SVGID_2_">
		<use xlink:href="#SVGID_1_"  overflow="visible"/>
	</clipPath>
	<path clip-path="url(#SVGID_2_)" fill="#0D3482" d="M44.83,60.481c-6.027-3.04-10.172-9.271-10.172-16.48
		c0-10.201,8.268-18.467,18.466-18.467c10.199,0,18.466,8.266,18.466,18.467c0,10.197-8.267,18.464-18.466,18.464
		c-2.153,0-4.211-0.387-6.13-1.064c22.185,9.656,36.175,6.593,45.934,1.199c2.646-5.649,4.131-11.951,4.131-18.599
		c0-24.265-19.671-43.937-43.935-43.937c-24.263,0-43.935,19.672-43.935,43.937c0,4.432,0.663,8.71,1.884,12.747
		C18.603,54.734,29.968,54.198,44.83,60.481"/>
</g>
<g>
	<defs>
		<path id="SVGID_3_" d="M11.073,56.749c5.466,18.045,22.221,31.187,42.051,31.187c17.612,0,32.798-10.372,39.805-25.334
			c-9.761,5.394-23.75,8.456-45.936-1.2c-0.744-0.263-1.466-0.567-2.163-0.92c-8.963-3.79-16.656-5.099-23.001-5.099
			C17.654,55.382,14.062,55.948,11.073,56.749"/>
	</defs>
	<clipPath id="SVGID_4_">
		<use xlink:href="#SVGID_3_"  overflow="visible"/>
	</clipPath>
	
		<linearGradient id="SVGID_5_" gradientUnits="userSpaceOnUse" x1="0" y1="115.7764" x2="1" y2="115.7764" gradientTransform="matrix(-10.2413 26.0895 26.0895 10.2413 -2964.1042 -1125.4331)">
		<stop  offset="0" style="stop-color:#6BC7F1"/>
		<stop  offset="0.1198" style="stop-color:#6BC7F1"/>
		<stop  offset="1" style="stop-color:#006FBB"/>
	</linearGradient>
	<polygon clip-path="url(#SVGID_4_)" fill="url(#SVGID_5_)" points="104.001,59.729 82,115.777 0,83.589 22.002,27.541 	"/>
</g>
<g>
	<defs>
		<path id="SVGID_6_" d="M91.343,35.17c-3.85,0-7.579,2.053-9.546,5.677c-1.288,2.386-1.592,5.041-1.048,7.495
			c0,0,2.445,10.102-0.846,15.497l0.004,0.002c15.434-0.093,20.959-12.666,20.959-12.666c2.853-5.265,0.892-11.844-4.37-14.696
			c-1.639-0.888-3.405-1.309-5.149-1.309H91.343z"/>
	</defs>
	<clipPath id="SVGID_7_">
		<use xlink:href="#SVGID_6_"  overflow="visible"/>
	</clipPath>
	
		<radialGradient id="SVGID_8_" cx="9.765625e-004" cy="115.7773" r="0.9985" gradientTransform="matrix(23.0854 3.6411 3.6411 -23.0854 -327.78 2709.7463)" gradientUnits="userSpaceOnUse">
		<stop  offset="0" style="stop-color:#FFFFFF"/>
		<stop  offset="0.0606" style="stop-color:#FFFFFF"/>
		<stop  offset="0.3818" style="stop-color:#6BC7F1"/>
		<stop  offset="1" style="stop-color:#006FBB"/>
	</radialGradient>
	<polygon clip-path="url(#SVGID_7_)" fill="url(#SVGID_8_)" points="80.481,31.505 108.131,35.866 103.141,67.506 75.491,63.145 	
		"/>
</g>
<g>
	<defs>
		<path id="SVGID_9_" d="M97.727,62.392c3.431,0.832,6.454,5.788,6.454,5.788c0.755,1.182,1.924,2.11,3.374,2.542
			c3.209,0.95,6.577-0.874,7.532-4.079c0.952-3.203-0.873-6.575-4.08-7.526c0,0-1.639-0.64-4.021-0.64
			C104.393,58.477,100.923,59.232,97.727,62.392"/>
	</defs>
	<clipPath id="SVGID_10_">
		<use xlink:href="#SVGID_9_"  overflow="visible"/>
	</clipPath>
	
		<radialGradient id="SVGID_11_" cx="0" cy="115.7773" r="1" gradientTransform="matrix(7.6651 -10.5367 10.5367 7.6651 -1106.083 -819.9333)" gradientUnits="userSpaceOnUse">
		<stop  offset="0" style="stop-color:#FFFFFF"/>
		<stop  offset="0.0606" style="stop-color:#FFFFFF"/>
		<stop  offset="0.3818" style="stop-color:#6BC7F1"/>
		<stop  offset="1" style="stop-color:#006FBB"/>
	</radialGradient>
	<polygon clip-path="url(#SVGID_10_)" fill="url(#SVGID_11_)" points="109.702,80.384 122.316,63.043 104.064,49.765 91.45,67.105 	
		"/>
</g>
<g>
	<path fill="#00135D" d="M220.05,32.381h12.245c5.218,0,9.464-4.246,9.464-9.463c0-5.219-4.246-9.465-9.464-9.465H220.05
		c-5.218,0-9.463,4.246-9.463,9.465C210.586,28.135,214.832,32.381,220.05,32.381 M220.05,18.376h12.245
		c2.504,0,4.542,2.037,4.542,4.542c0,2.502-2.038,4.541-4.542,4.541H220.05c-2.504,0-4.543-2.039-4.543-4.541
		C215.506,20.414,217.546,18.376,220.05,18.376"/>
	<polygon fill="#00135D" points="207.439,39.962 223.709,39.962 223.709,52.032 228.632,52.032 228.632,39.962 244.902,39.962 
		244.902,35.042 207.439,35.042 	"/>
	<polygon fill="#00135D" points="148.173,39.962 164.443,39.962 164.443,52.032 169.364,52.032 169.364,39.962 185.635,39.962 
		185.635,35.042 148.173,35.042 	"/>
	<path fill="#00135D" d="M313.498,27.115h8.468c3.767,0,6.831-3.064,6.831-6.829c0-3.768-3.064-6.833-6.831-6.833h-8.468
		c-3.769,0-6.83,3.065-6.83,6.833C306.668,24.051,309.729,27.115,313.498,27.115 M313.498,18.376h8.468
		c1.054,0,1.908,0.855,1.908,1.91c0,1.05-0.854,1.906-1.908,1.906h-8.468c-1.055,0-1.909-0.856-1.909-1.906
		C311.589,19.231,312.443,18.376,313.498,18.376"/>
	<path fill="#00135D" d="M190.602,13.455v4.924c1.052,0,1.908,0.854,1.908,1.909v24.481c0,1.053-0.856,1.91-1.908,1.91V51.6
		c3.767,0,6.831-3.065,6.831-6.831V20.288C197.433,16.519,194.369,13.455,190.602,13.455"/>
	<path fill="#00135D" d="M136.373,20.288v24.48c0,3.768,3.064,6.832,6.83,6.832v-4.922c-1.051,0-1.908-0.855-1.908-1.91v-24.48
		c0-1.055,0.857-1.91,1.908-1.91v-4.923C139.437,13.455,136.373,16.518,136.373,20.288"/>
	<path fill="#00135D" d="M287.49,38.771h-23.733c-2.137,0-3.872-1.736-3.872-3.868s1.735-3.869,3.872-3.869h7.921
		c4.847,0,8.793-3.942,8.793-8.791c0-4.847-3.946-8.789-8.793-8.789h-15.155v4.922h15.155c2.133,0,3.871,1.734,3.871,3.867
		c0,2.133-1.738,3.87-3.871,3.87h-7.921c-4.85,0-8.794,3.944-8.794,8.79c0,4.847,3.944,8.789,8.794,8.789h23.733v8.341h4.922V13.408
		h-4.922V38.771z"/>
	<rect x="383.059" y="13.407" fill="#00135D" width="4.922" height="38.625"/>
	<polygon fill="#00135D" points="374.651,25.094 367.475,25.094 367.475,30.014 374.651,30.014 374.651,52.032 379.574,52.032 
		379.574,13.408 374.651,13.408 	"/>
	<path fill="#00135D" d="M335.07,29.647h-32.608v4.923h14.874v6.801h4.922V34.57h12.813v2.56h-8.407v4.922h8.407v4.492h-22.25V40.53
		h-4.924v6.322c0,2.544,2.07,4.615,4.614,4.615h27.482v-4.493v-0.43V13.409h-4.923V29.647z"/>
	<path fill="#00135D" d="M349.938,38.68c0,2.543,2.069,4.614,4.612,4.614h12.663v-4.923H354.86v-8.358h7.485v-4.919h-7.485v-6.717
		h12.354v-4.923h-17.275V38.68z"/>
	<path fill="#00135D" d="M427.93,44.514c1.422-2.936,1.43-5.677,1.427-5.833V13.454h-27.121v4.924h22.199v8.355h-22.199v4.923
		h22.199v7.031c0,0.037-0.047,3.52-2.486,5.827h-24.329v4.921h37.532v-4.921H427.93z"/>
	<path fill="#00135D" d="M164.442,19.522c0,3.474-2.825,6.296-6.296,6.296h-3.825v4.923h3.825c3.538,0,6.7-1.646,8.757-4.214
		c2.057,2.568,5.218,4.214,8.757,4.214h3.825v-4.923h-3.825c-3.471,0-6.296-2.822-6.296-6.296v-1.146h11.828v-4.922h-28.577v4.922
		h11.827V19.522z"/>
	<path fill="#00135D" d="M187.726,60.099h-7.431c-3.994,0-7.245,3.252-7.245,7.247c0,3.993,3.251,7.243,7.245,7.243h7.431
		c3.995,0,7.246-3.25,7.246-7.243C194.972,63.351,191.721,60.099,187.726,60.099 M187.726,71.795h-7.431
		c-2.452,0-4.452-1.996-4.452-4.449c0-2.456,2-4.452,4.452-4.452h7.431c2.454,0,4.45,1.996,4.45,4.452
		C192.176,69.799,190.18,71.795,187.726,71.795"/>
	<path fill="#00135D" d="M212.702,60.099h-7.432c-3.994,0-7.244,3.252-7.244,7.247c0,3.993,3.25,7.243,7.244,7.243h7.432
		c3.993,0,7.244-3.25,7.244-7.243C219.946,63.351,216.695,60.099,212.702,60.099 M212.702,71.795h-7.432
		c-2.452,0-4.451-1.996-4.451-4.449c0-2.456,1.999-4.452,4.451-4.452h7.432c2.453,0,4.449,1.996,4.449,4.452
		C217.151,69.799,215.155,71.795,212.702,71.795"/>
	<path fill="#00135D" d="M271.483,60.099h-7.429c-3.997,0-7.245,3.252-7.245,7.247c0,3.993,3.248,7.243,7.245,7.243h7.429
		c3.997,0,7.246-3.25,7.246-7.243C278.729,63.351,275.48,60.099,271.483,60.099 M271.483,71.795h-7.429
		c-2.456,0-4.452-1.996-4.452-4.449c0-2.456,1.996-4.452,4.452-4.452h7.429c2.454,0,4.452,1.996,4.452,4.452
		C275.936,69.799,273.938,71.795,271.483,71.795"/>
	<path fill="#00135D" d="M387.392,67.346c0,3.995,3.251,7.244,7.243,7.244H409.1v-2.794h-14.465c-2.452,0-4.449-1.996-4.449-4.45
		c0-2.456,1.997-4.452,4.449-4.452H409.1v-2.795h-14.465C390.643,60.099,387.392,63.351,387.392,67.346"/>
	<path fill="#00135D" d="M241.185,69.118c2.484,0,4.509-2.023,4.509-4.51c0-2.487-2.024-4.51-4.509-4.51h-12.786
		c-2.485,0-4.51,2.022-4.51,4.51v9.888h2.796v-5.378h8.072l6.761,5.378h4.487l-6.758-5.378H241.185z M226.685,64.608
		c0-0.946,0.77-1.715,1.714-1.715h12.786c0.944,0,1.713,0.769,1.713,1.715s-0.769,1.716-1.713,1.716h-14.5V64.608z"/>
	<path fill="#00135D" d="M308.893,64.608v9.98h21.919v-2.794h-19.123v-3.054h19.123v-2.794h-19.123v-1.339
		c0-0.946,0.771-1.715,1.713-1.715h17.41v-2.795h-17.41C310.914,60.099,308.893,62.121,308.893,64.608"/>
	<path fill="#00135D" d="M361.055,64.608v9.98h21.918v-2.794H363.85v-3.054h19.123v-2.794H363.85v-1.339
		c0-0.946,0.769-1.715,1.712-1.715h17.411v-2.795h-17.411C363.076,60.099,361.055,62.121,361.055,64.608"/>
	<polygon fill="#00135D" points="335.001,62.894 344.547,62.894 344.547,74.496 347.341,74.496 347.341,62.894 356.892,62.894 
		356.892,60.099 335.001,60.099 	"/>
	<path fill="#00135D" d="M300.282,60.099h-17.369v14.396h2.796V62.894h14.573c0.94,0,1.712,0.768,1.712,1.716v9.885h2.796v-9.885
		C304.79,62.12,302.767,60.099,300.282,60.099"/>
	<rect x="249.831" y="60.086" fill="#00135D" width="2.794" height="14.41"/>
	<polygon fill="#00135D" points="432.355,60.085 432.355,65.946 416.146,65.946 416.146,60.085 413.351,60.085 413.351,74.495 
		416.146,74.495 416.146,68.74 432.355,68.74 432.355,74.495 435.151,74.495 435.151,60.085 	"/>
	<polygon fill="#00135D" points="160.63,70.897 154.444,60.099 152,60.099 145.811,70.9 139.598,60.085 136.375,60.085 
		144.709,74.589 146.919,74.589 153.223,63.589 159.525,74.589 161.74,74.589 170.033,60.085 166.813,60.085 	"/>
</g>
</svg>
